<mxfile host="65bd71144e">
    <diagram id="bifldOrSAMQXQ7oH-sLB" name="Page-1">
        <mxGraphModel dx="1191" dy="1508" grid="0" gridSize="10" guides="1" tooltips="1" connect="1" arrows="1" fold="1" page="0" pageScale="1" pageWidth="827" pageHeight="1169" math="0" shadow="0">
            <root>
                <mxCell id="0"/>
                <mxCell id="1" parent="0"/>
                <mxCell id="23" value="Finance Process" style="swimlane;startSize=20;horizontal=1;containerType=tree;labelBackgroundColor=none;fillColor=#FFFF99;fontColor=#000000;rounded=0;swimlaneLine=1;glass=0;shadow=0;backgroundOutline=0;separatorColor=#CCFF99;" vertex="1" parent="1">
                    <mxGeometry x="58" y="21" width="695" height="527" as="geometry"/>
                </mxCell>
                <mxCell id="45" value="" style="rounded=0;whiteSpace=wrap;html=1;shadow=0;glass=0;labelBackgroundColor=none;fontColor=#ffffff;fillColor=#6d8764;strokeColor=#3A5431;" vertex="1" parent="23">
                    <mxGeometry y="21" width="695" height="506" as="geometry"/>
                </mxCell>
                <mxCell id="24" value="" style="edgeStyle=elbowEdgeStyle;elbow=vertical;startArrow=none;endArrow=none;rounded=1;fontColor=#000000;" edge="1" parent="23" source="25" target="26">
                    <mxGeometry relative="1" as="geometry"/>
                </mxCell>
                <mxCell id="25" value="Create PR on NGPS" style="whiteSpace=wrap;html=1;treeFolding=1;treeMoving=1;newEdgeStyle={&quot;edgeStyle&quot;:&quot;elbowEdgeStyle&quot;,&quot;startArrow&quot;:&quot;none&quot;,&quot;endArrow&quot;:&quot;none&quot;};labelBackgroundColor=none;fillColor=#ffcd28;strokeColor=#d79b00;gradientColor=#ffa500;rounded=1;" vertex="1" parent="23">
                    <mxGeometry x="20" y="40" width="120" height="40" as="geometry"/>
                </mxCell>
                <mxCell id="26" value="PO is out on NGPS" style="whiteSpace=wrap;html=1;treeFolding=1;treeMoving=1;newEdgeStyle={&quot;edgeStyle&quot;:&quot;elbowEdgeStyle&quot;,&quot;startArrow&quot;:&quot;none&quot;,&quot;endArrow&quot;:&quot;none&quot;};labelBackgroundColor=none;fillColor=#008a00;strokeColor=#005700;fontColor=#ffffff;rounded=1;" vertex="1" parent="23">
                    <mxGeometry x="260" y="40" width="120" height="40" as="geometry"/>
                </mxCell>
                <mxCell id="27" value="" style="edgeStyle=elbowEdgeStyle;elbow=vertical;startArrow=none;endArrow=none;rounded=1;fontColor=#000000;" edge="1" target="28" source="26" parent="23">
                    <mxGeometry relative="1" as="geometry">
                        <mxPoint x="525" y="860" as="sourcePoint"/>
                    </mxGeometry>
                </mxCell>
                <mxCell id="28" value="PO is added into the Finance Bot" style="whiteSpace=wrap;html=1;treeFolding=1;treeMoving=1;newEdgeStyle={&quot;edgeStyle&quot;:&quot;elbowEdgeStyle&quot;,&quot;startArrow&quot;:&quot;none&quot;,&quot;endArrow&quot;:&quot;none&quot;};labelBackgroundColor=none;fillColor=#008a00;strokeColor=#005700;fontColor=#ffffff;rounded=1;" vertex="1" parent="23">
                    <mxGeometry x="480" y="40" width="120" height="40" as="geometry"/>
                </mxCell>
                <mxCell id="29" value="" style="edgeStyle=elbowEdgeStyle;elbow=vertical;startArrow=none;endArrow=none;rounded=1;fontColor=#000000;" edge="1" target="30" source="28" parent="23">
                    <mxGeometry relative="1" as="geometry">
                        <mxPoint x="525" y="940" as="sourcePoint"/>
                    </mxGeometry>
                </mxCell>
                <mxCell id="30" value="&lt;span style=&quot;&quot;&gt;Goods/Service Received&lt;/span&gt;" style="whiteSpace=wrap;html=1;treeFolding=1;treeMoving=1;newEdgeStyle={&quot;edgeStyle&quot;:&quot;elbowEdgeStyle&quot;,&quot;startArrow&quot;:&quot;none&quot;,&quot;endArrow&quot;:&quot;none&quot;};labelBackgroundColor=none;fillColor=#008a00;strokeColor=#005700;fontColor=#ffffff;rounded=1;" vertex="1" parent="23">
                    <mxGeometry x="480" y="220" width="120" height="40" as="geometry"/>
                </mxCell>
                <mxCell id="31" value="" style="edgeStyle=elbowEdgeStyle;elbow=vertical;startArrow=none;endArrow=none;rounded=1;fontColor=#000000;" edge="1" target="32" source="30" parent="23">
                    <mxGeometry relative="1" as="geometry">
                        <mxPoint x="525" y="1020" as="sourcePoint"/>
                    </mxGeometry>
                </mxCell>
                <mxCell id="32" value="Invoice submitted by POC through the Finance Bot" style="whiteSpace=wrap;html=1;treeFolding=1;treeMoving=1;newEdgeStyle={&quot;edgeStyle&quot;:&quot;elbowEdgeStyle&quot;,&quot;startArrow&quot;:&quot;none&quot;,&quot;endArrow&quot;:&quot;none&quot;};labelBackgroundColor=none;fillColor=#008a00;strokeColor=#005700;fontColor=#ffffff;rounded=1;" vertex="1" parent="23">
                    <mxGeometry x="240" y="220" width="120" height="50" as="geometry"/>
                </mxCell>
                <mxCell id="34" value="" style="edgeStyle=elbowEdgeStyle;elbow=vertical;startArrow=none;endArrow=none;rounded=1;fontColor=#000000;" edge="1" target="35" source="32" parent="23">
                    <mxGeometry relative="1" as="geometry">
                        <mxPoint x="495" y="870" as="sourcePoint"/>
                    </mxGeometry>
                </mxCell>
                <mxCell id="35" value="GR Process is carried out" style="whiteSpace=wrap;html=1;treeFolding=1;treeMoving=1;newEdgeStyle={&quot;edgeStyle&quot;:&quot;elbowEdgeStyle&quot;,&quot;startArrow&quot;:&quot;none&quot;,&quot;endArrow&quot;:&quot;none&quot;};labelBackgroundColor=none;fillColor=#008a00;strokeColor=#005700;fontColor=#ffffff;rounded=1;" vertex="1" parent="23">
                    <mxGeometry x="20" y="220" width="120" height="40" as="geometry"/>
                </mxCell>
                <mxCell id="36" value="" style="edgeStyle=elbowEdgeStyle;elbow=vertical;startArrow=none;endArrow=none;rounded=1;fontColor=#000000;" edge="1" target="37" source="35" parent="23">
                    <mxGeometry relative="1" as="geometry">
                        <mxPoint x="375" y="950" as="sourcePoint"/>
                    </mxGeometry>
                </mxCell>
                <mxCell id="37" value="Hardcopy is submitted to the Branch in the next 14 days" style="whiteSpace=wrap;html=1;treeFolding=1;treeMoving=1;newEdgeStyle={&quot;edgeStyle&quot;:&quot;elbowEdgeStyle&quot;,&quot;startArrow&quot;:&quot;none&quot;,&quot;endArrow&quot;:&quot;none&quot;};labelBackgroundColor=none;fillColor=#008a00;strokeColor=#005700;fontColor=#ffffff;rounded=1;" vertex="1" parent="23">
                    <mxGeometry x="15" y="400" width="130" height="70" as="geometry"/>
                </mxCell>
                <mxCell id="40" value="" style="edgeStyle=elbowEdgeStyle;elbow=vertical;startArrow=none;endArrow=none;rounded=1;fontColor=#000000;" edge="1" target="41" source="37" parent="23">
                    <mxGeometry relative="1" as="geometry">
                        <mxPoint x="160" y="780" as="sourcePoint"/>
                    </mxGeometry>
                </mxCell>
                <mxCell id="41" value="PO is closed by the Finance Team on the Finance Bot" style="whiteSpace=wrap;html=1;treeFolding=1;treeMoving=1;newEdgeStyle={&quot;edgeStyle&quot;:&quot;elbowEdgeStyle&quot;,&quot;startArrow&quot;:&quot;none&quot;,&quot;endArrow&quot;:&quot;none&quot;};labelBackgroundColor=none;fillColor=#0050ef;strokeColor=#001DBC;fontColor=#ffffff;rounded=1;" vertex="1" parent="23">
                    <mxGeometry x="240" y="400" width="130" height="70" as="geometry"/>
                </mxCell>
            </root>
        </mxGraphModel>
    </diagram>
</mxfile>